<svg width="27" height="25" viewBox="0 0 27 25" fill="none" xmlns="http://www.w3.org/2000/svg">
<path id="Vector" d="M14.0711 19.2346L13.5 18.8373L12.9289 19.2346L6.20223 23.9146C6.20161 23.915 6.20099 23.9155 6.20036 23.9159C6.04896 24.0188 5.87354 24.0098 5.72916 23.91C5.65826 23.8609 5.61912 23.804 5.60241 23.7598C5.58917 23.7248 5.58039 23.6762 5.60754 23.5966L5.60779 23.5959L8.18011 16.0342L8.4252 15.3137L7.7961 14.8855L1.14637 10.3589L1.14639 10.3589L1.13988 10.3545C1.05018 10.2945 1.02204 10.2385 1.01054 10.2022C0.996646 10.1584 0.994611 10.1003 1.01599 10.0361C1.03736 9.97184 1.07792 9.91507 1.13111 9.87543C1.17908 9.83969 1.25461 9.80454 1.37725 9.80454H9.53206H10.2487L10.479 9.12592L13.1603 1.22548C13.1604 1.22526 13.1605 1.22503 13.1605 1.2248C13.2055 1.09386 13.321 1 13.5137 1C13.706 1 13.8214 1.09348 13.8665 1.22401C13.8667 1.2245 13.8669 1.22499 13.8671 1.22548L16.52 9.12298L16.749 9.80454H17.4679H25.6228C25.7454 9.80454 25.8209 9.83969 25.8689 9.87543C25.9221 9.91507 25.9626 9.97184 25.984 10.0361C26.0054 10.1003 26.0034 10.1584 25.9895 10.2022C25.978 10.2385 25.9498 10.2945 25.8601 10.3545L25.8601 10.3545L25.8536 10.3589L19.2039 14.8855L18.5748 15.3137L18.8199 16.0342L21.3922 23.5959L21.3925 23.5966C21.4193 23.6754 21.4114 23.7267 21.3966 23.766C21.3785 23.8143 21.3374 23.8732 21.2668 23.9226C21.125 24.0217 20.959 24.0291 20.8113 23.924L20.8113 23.924L20.8029 23.9182L14.0711 19.2346Z" stroke="#D4E921" stroke-width="2"/>
</svg>
